<?xml version="1.0" standalone="no"?><!DOCTYPE svg PUBLIC "-//W3C//DTD SVG 1.1//EN" "http://www.w3.org/Graphics/SVG/1.1/DTD/svg11.dtd"><svg t="1647327696668" class="icon" viewBox="0 0 1024 1024" version="1.1" xmlns="http://www.w3.org/2000/svg" p-id="20720" xmlns:xlink="http://www.w3.org/1999/xlink" width="200" height="200"><defs><style type="text/css"></style></defs><path d="M1023.968002 127.992c0-70.71558-57.27642-127.992-127.992-127.992-56.572464 0-104.057496 36.989688-120.95244 87.930504-73.5954-53.372664-163.829761-85.242672-261.679645-85.242672-98.809824 0-189.876133 32.509968-263.855509 86.842572C233.041435 37.75764 185.236423 0 128.023999 0 57.308418 0 0.031998 57.27642 0.031998 127.992c0 65.211924 48.892944 118.3926 111.929004 126.3921C83.226798 313.324417 66.71583 379.304293 66.71583 449.315918c0 202.355353 134.647585 373.032685 319.212049 427.941254C384.96794 883.400787 384.008 889.544403 384.008 895.944003c0 70.71558 57.27642 127.992 127.992 127.992 70.71558 0 127.992-57.27642 127.992-127.992 0-6.143616-0.95994-12.095244-1.791888-18.046872C824.044497 823.884507 959.972002 652.631211 959.972002 449.315918c0-70.07562-16.574964-136.183489-45.373164-195.187801C976.354978 245.040685 1023.968002 192.307981 1023.968002 127.992zM246.736579 175.413037c68.987688-67.131804 162.997813-108.729204 266.607337-108.729204 101.817636 0 194.291857 40.253484 262.895569 105.337416 1.727892 4.607712 3.711768 9.023436 5.887632 13.375164L636.216236 302.701081C602.682332 273.966877 559.613024 255.984001 512 255.984001 460.611212 255.984001 414.150116 276.462721 379.720267 309.356665L237.137179 194.099869C240.784951 188.084245 244.112743 181.940629 246.736579 175.413037zM512 319.980001c70.587588 0 127.992 57.404412 127.992 127.992S582.587588 575.964002 512 575.964002C441.412412 575.964002 384.008 518.55959 384.008 447.972002S441.412412 319.980001 512 319.980001zM64.027998 127.992c0-35.261796 28.734204-63.996 63.996-63.996s63.996 28.734204 63.996 63.996c0 5.247672-1.791888 9.91938-3.007812 14.847072C184.148491 162.741829 170.965315 179.380789 152.342479 187.060309 144.854947 190.196113 136.663459 191.988001 128.023999 191.988001 92.762202 191.988001 64.027998 163.253797 64.027998 127.992zM411.334292 817.740891c-161.589901-44.7972-280.686457-192.755953-280.686457-368.424973 0-76.987188 23.03856-148.534717 62.332104-208.626961L190.804075 238.897069c1.5999-0.895944 3.327792-1.663896 4.863696-2.623836C194.707831 237.681145 193.939879 239.217049 192.979939 240.688957L341.770639 360.937441C328.331479 387.175802 320.011999 416.48597 320.011999 447.972002c0 95.03406 69.243672 173.429161 159.926005 188.724205l-9.407412 138.679333C446.788076 783.567027 426.437348 798.350103 411.334292 817.740891zM512 959.940004c-35.261796 0-63.996-28.734204-63.996-63.996 0-1.855884 0.895944-3.391788 1.023936-5.11968C451.779764 858.058371 478.530092 831.948003 512 831.948003c33.5979 0 60.47622 26.302356 63.03606 59.260296C575.164052 892.872195 575.996 894.280107 575.996 895.944003 575.996 931.2058 547.261796 959.940004 512 959.940004zM613.11368 818.316855c-18.942816-24.63846-46.333104-42.23736-78.07512-47.997l9.087432-133.559653C634.744328 621.401162 703.988001 543.006062 703.988001 447.972002c0-35.1978-10.175364-67.771764-26.686332-96.121992l146.742829-118.008624 3.263796-2.623836c1.663896 2.367852 3.391788 4.7997 4.991688 7.231548C872.425473 298.925317 895.976001 371.368789 895.976001 449.315918 895.976001 625.75289 775.791513 774.223611 613.11368 818.316855zM895.976001 191.988001c-7.487532 0-14.463096-1.91988-21.182676-4.287732-21.310668-7.551528-36.47772-25.982376-40.573464-48.63696C833.515905 135.351541 831.980001 131.895757 831.980001 127.992c0-35.261796 28.734204-63.996 63.996-63.996s63.996 28.734204 63.996 63.996S931.237798 191.988001 895.976001 191.988001z" p-id="20721" fill="#1196db"></path></svg>