<?xml version="1.0" standalone="no"?><!DOCTYPE svg PUBLIC "-//W3C//DTD SVG 1.1//EN" "http://www.w3.org/Graphics/SVG/1.1/DTD/svg11.dtd"><svg t="1647326770510" class="icon" viewBox="0 0 1024 1024" version="1.1" xmlns="http://www.w3.org/2000/svg" p-id="16668" xmlns:xlink="http://www.w3.org/1999/xlink" width="200" height="200"><defs><style type="text/css"></style></defs><path d="M958.784 456.128c-1.6-33.024-6.528-65.088-14.528-96-3.264-12.544-6.848-24.896-11.072-37.056-4.224-12.096-8.64-24.064-13.76-35.712-8.192-18.688-17.792-36.544-28.224-53.888C807.296 93.76 654.784 0 480 0 351.424 0 234.944 50.816 148.8 133.12c-24.832 23.68-47.36 49.792-66.688 78.272-16.128 23.808-29.888 49.28-41.6 75.904-10.24 23.296-18.368 47.68-24.832 72.768C5.824 398.464 0 438.528 0 480c0 90.368 25.408 174.592 68.864 246.72 17.088 28.48 36.992 54.912 59.456 79.168 41.024 44.288 90.24 80.64 145.344 107.008 19.328 9.216 39.168 17.536 59.84 24.192C379.712 951.872 428.864 960 480 960c99.52 0 191.936-30.272 268.608-82.112 28.544-19.264 54.592-41.856 78.272-66.688 73.472-76.928 121.6-178.112 131.072-290.496C959.104 507.264 960 493.76 960 480 960 471.936 959.168 464.064 958.784 456.128zM847.488 285.632c9.856 18.496 18.048 37.952 25.024 57.984-35.072 36.608-75.136 68.224-119.168 93.952-38.528-68.16-89.728-128.064-150.592-176.64C625.536 257.984 648.512 256 672 256 733.504 256 792.384 266.752 847.488 285.632zM696.192 466.944C629.888 495.808 556.8 512 480 512 397.12 512 318.784 492.8 248.384 459.52c68.48-85.056 161.856-148.992 269.12-180.8C591.168 326.144 652.544 390.72 696.192 466.944zM480 64c123.264 0 233.856 54.208 310.08 139.648C751.872 196.16 712.448 192 672 192 622.208 192 574.144 198.656 527.872 209.92 447.296 163.264 355.136 134.912 256.64 129.664 321.216 88.32 397.76 64 480 64zM178.432 194.304C193.472 193.024 208.64 192 224 192c77.248 0 150.656 16.448 217.28 45.568C342.016 278.336 256.32 344.768 191.552 428.352 153.408 404.416 118.464 376 87.424 343.616 107.008 287.36 138.24 236.672 178.432 194.304zM90.176 623.808C73.536 578.88 64 530.624 64 480c0-21.952 2.24-43.392 5.504-64.448C96 439.872 124.48 461.888 155.008 481.216 127.68 525.44 105.472 573.056 90.176 623.808zM292.288 850.752c-63.104-32.064-117.184-79.488-156.672-137.664 11.776-72.64 37.76-140.416 75.328-200.448C292.16 552.832 383.296 576 480 576c4.224 0 8.384-0.576 12.608-0.64C401.856 645.568 331.776 740.736 292.288 850.752zM765.696 781.568C691.072 852.288 590.656 896 480 896c-44.864 0-88-7.36-128.576-20.544 59.776-169.088 200.576-299.712 375.808-345.344C753.344 593.664 768 663.104 768 736 768 751.36 766.976 766.528 765.696 781.568zM830.336 703.36c-3.456-65.28-17.024-127.68-39.488-185.856C814.848 514.24 839.168 512 864 512c10.24 0 20.224 0.96 30.272 1.536C888.704 583.04 865.984 647.68 830.336 703.36zM864 448c-4.224 0-8.384 0.576-12.608 0.64 13.504-10.432 26.496-21.504 39.104-33.024 1.728 11.2 3.136 22.464 3.968 33.984C884.288 449.024 874.304 448 864 448z" p-id="16669" fill="#1196db"></path></svg>