<?xml version="1.0" standalone="no"?><!DOCTYPE svg PUBLIC "-//W3C//DTD SVG 1.1//EN" "http://www.w3.org/Graphics/SVG/1.1/DTD/svg11.dtd"><svg t="1647322137425" class="icon" viewBox="0 0 1024 1024" version="1.1" xmlns="http://www.w3.org/2000/svg" p-id="12271" xmlns:xlink="http://www.w3.org/1999/xlink" width="200" height="200"><defs><style type="text/css"></style></defs><path d="M509.341538 964.923077H280.079754c-27.1872 0-49.230769-22.043569-49.230769-49.230769s22.043569-49.230769 49.230769-49.23077h229.261784c27.1872 0 49.230769 22.043569 49.23077 49.23077s-22.039631 49.230769-49.23077 49.230769z" fill="#594BC8" p-id="12272"></path><path d="M916.755692 963.288615h-213.500061c-44.614892 0-80.915692-36.296862-80.915693-80.911753V485.230277c0-44.614892 36.3008-80.911754 80.915693-80.911754h213.500061c44.614892 0 80.915692 36.296862 80.915693 80.911754v397.146585c-0.003938 44.614892-36.3008 80.911754-80.915693 80.911753z m-195.954215-98.461538h178.408369v-362.047015h-178.408369v362.047015z" fill="#B0A7F7" p-id="12273"></path><path d="M509.341538 953.340062c-27.191138 0-49.230769-22.043569-49.230769-49.23077V779.933538l-316.282092 2.819939h-0.437169c-57.926892 0-105.054523-47.127631-105.054523-105.058462V175.080369c0-57.926892 47.127631-105.054523 105.054523-105.054523h731.900061c57.926892 0 105.054523 47.127631 105.054523 105.054523v132.462277c0 27.191138-22.043569 49.230769-49.230769 49.230769s-49.230769-22.039631-49.230769-49.230769V175.080369c0-3.513108-3.079877-6.592985-6.592985-6.592984H143.391508c-3.513108 0-6.592985 3.079877-6.592985 6.592984V677.691077c0 3.477662 3.0208 6.533908 6.486646 6.596923l365.6192-3.257108 0.437169-0.003938a49.242585 49.242585 0 0 1 49.23077 49.230769v173.851569c0 27.1872-22.039631 49.230769-49.23077 49.23077z" fill="#594BC8" p-id="12274"></path></svg>